<?xml version="1.0" encoding="UTF-8" standalone="no"?>
<!-- Created with Inkscape (http://www.inkscape.org/) -->

<svg
   xmlns:dc="http://purl.org/dc/elements/1.1/"
   xmlns:cc="http://creativecommons.org/ns#"
   xmlns:rdf="http://www.w3.org/1999/02/22-rdf-syntax-ns#"
   xmlns:svg="http://www.w3.org/2000/svg"
   xmlns="http://www.w3.org/2000/svg"
   xmlns:sodipodi="http://sodipodi.sourceforge.net/DTD/sodipodi-0.dtd"
   xmlns:inkscape="http://www.inkscape.org/namespaces/inkscape"
   id="svg2"
   version="1.1"
   inkscape:version="0.48.4 r9939"
   width="765"
   height="990"
   xml:space="preserve"
   sodipodi:docname="Llevatelo2.ai.svg"
   inkscape:export-filename="/home/hmena/Descargas/LLevatelo2/img/Llevatelo2.ai.png"
   inkscape:export-xdpi="90"
   inkscape:export-ydpi="90"><metadata
     id="metadata8"><rdf:RDF><cc:Work
         rdf:about=""><dc:format>image/svg+xml</dc:format><dc:type
           rdf:resource="http://purl.org/dc/dcmitype/StillImage" /><dc:title></dc:title></cc:Work></rdf:RDF></metadata><defs
     id="defs6"><clipPath
       clipPathUnits="userSpaceOnUse"
       id="clipPath16"><path
         d="M 0,0 612,0 612,661 0,661 0,0 z"
         id="path18" /></clipPath><clipPath
       clipPathUnits="userSpaceOnUse"
       id="clipPath30"><path
         d="M 0,792 612,792 612,0 0,0 0,792 z"
         id="path32" /></clipPath><clipPath
       clipPathUnits="userSpaceOnUse"
       id="clipPath46"><path
         d="M 0,792 612,792 612,0 0,0 0,792 z"
         id="path48" /></clipPath><clipPath
       clipPathUnits="userSpaceOnUse"
       id="clipPath112"><path
         d="M 0,792 612,792 612,0 0,0 0,792 z"
         id="path114" /></clipPath><clipPath
       clipPathUnits="userSpaceOnUse"
       id="clipPath30-3"><path
         inkscape:connector-curvature="0"
         d="M 0,792 612,792 612,0 0,0 0,792 z"
         id="path32-6" /></clipPath><clipPath
       clipPathUnits="userSpaceOnUse"
       id="clipPath30-3-1"><path
         inkscape:connector-curvature="0"
         d="M 0,792 612,792 612,0 0,0 0,792 z"
         id="path32-6-2" /></clipPath><clipPath
       clipPathUnits="userSpaceOnUse"
       id="clipPath30-3-1-7"><path
         inkscape:connector-curvature="0"
         d="M 0,792 612,792 612,0 0,0 0,792 z"
         id="path32-6-2-7" /></clipPath></defs><sodipodi:namedview
     pagecolor="#ffffff"
     bordercolor="#666666"
     borderopacity="1"
     objecttolerance="10"
     gridtolerance="10"
     guidetolerance="10"
     inkscape:pageopacity="0"
     inkscape:pageshadow="2"
     inkscape:window-width="1366"
     inkscape:window-height="744"
     id="namedview4"
     showgrid="false"
     inkscape:zoom="0.23838384"
     inkscape:cx="382.5"
     inkscape:cy="153.30041"
     inkscape:window-x="0"
     inkscape:window-y="24"
     inkscape:window-maximized="1"
     inkscape:current-layer="g10" /><g
     id="g10"
     inkscape:groupmode="layer"
     inkscape:label="Llevatelo2"
     transform="matrix(1.25,0,0,-1.25,0,990)"><g
       id="g108"
       transform="translate(-77.186441,-77.186443)"><g
         id="g110"
         clip-path="url(#clipPath112)"><g
           id="g116"
           transform="translate(322.6978,501.8003)"><path
             d="m 0,0 c -2.897,0.751 -7.595,0.25 -10.335,0.167 -0.392,-1.502 0.078,-2.837 0.078,-4.423 0,-1.168 -0.313,-2.336 -0.313,-3.504 -0.235,-11.266 -0.548,-27.204 1.096,-38.469 2.036,-0.167 4.307,-0.834 6.499,-0.584 0.391,0 0.704,0.25 1.096,0.25 1.018,0.084 2.114,-0.417 3.131,-0.417 0.471,0 1.019,0.084 1.488,0.167 1.566,0.084 2.662,0.167 3.993,0.417 1.018,0.167 1.957,0.417 2.975,0.501 0.157,1.669 -0.156,3.337 -0.234,4.923 -0.078,1.502 -0.157,3.004 -0.313,4.673 -2.662,0.584 -5.012,1.419 -7.83,1.335 -0.47,3.422 -0.47,6.676 -0.47,9.93 0,1.753 0.313,3.588 0.313,5.341 0,1.085 -0.235,3.922 -0.313,5.006 -0.078,1.085 0,2.17 0,3.255 C 0.705,-8.178 0.235,-5.007 0.157,-1.836 0.157,-1.252 0.313,-0.584 0,0 z"
             style="fill:none;stroke:#ffffff;stroke-width:1;stroke-linecap:butt;stroke-linejoin:miter;stroke-miterlimit:10;stroke-opacity:1;stroke-dasharray:none"
             id="path118"
             inkscape:connector-curvature="0" /></g><g
           id="g120"
           transform="translate(345.0898,501.8003)"><path
             d="m 0,0 c -2.897,0.751 -7.595,0.25 -10.335,0.167 -0.392,-1.502 0.078,-2.837 0.078,-4.423 0,-1.168 -0.313,-2.336 -0.313,-3.504 -0.235,-11.266 -0.548,-27.204 1.096,-38.469 2.036,-0.167 4.307,-0.834 6.499,-0.584 0.391,0 0.704,0.25 1.096,0.25 1.018,0.084 2.114,-0.417 3.131,-0.417 0.471,0 1.019,0.084 1.488,0.167 1.566,0.084 2.662,0.167 3.993,0.417 1.018,0.167 1.957,0.417 2.975,0.501 0.157,1.669 -0.156,3.337 -0.234,4.923 -0.078,1.502 -0.157,3.004 -0.313,4.673 -2.662,0.584 -5.012,1.419 -7.83,1.335 -0.47,3.422 -0.47,6.676 -0.47,9.93 0,1.753 0.313,3.588 0.313,5.341 0,1.085 -0.235,3.922 -0.313,5.006 -0.078,1.085 0,2.17 0,3.255 C 0.705,-8.178 0.235,-5.007 0.157,-1.836 0.157,-1.252 0.313,-0.584 0,0 z"
             style="fill:none;stroke:#ffffff;stroke-width:1;stroke-linecap:butt;stroke-linejoin:miter;stroke-miterlimit:10;stroke-opacity:1;stroke-dasharray:none"
             id="path122"
             inkscape:connector-curvature="0" /></g><g
           id="g124"
           transform="translate(379.5391,503.0518)"><path
             d="m 0,0 c -1.331,0.25 -2.819,0.584 -3.993,0.584 -5.716,-0.083 -10.179,-0.667 -15.972,-1.501 -0.627,0.25 -1.175,0.083 -2.036,0 -1.096,-8.596 -0.548,-16.356 -0.939,-24.45 -0.157,-3.005 0.156,-5.841 0.234,-8.512 0,-1.084 -0.156,-2.169 -0.078,-3.171 0.235,-3.171 0.078,-7.093 0.548,-10.847 3.915,-0.334 8.612,0 12.214,0 0.626,0 1.252,-0.167 1.879,-0.167 0.391,0 0.862,0.25 1.252,0.25 3.289,0.083 5.952,-0.25 8.378,0.918 1.096,3.504 0.236,7.093 0.47,11.015 -4.854,1.251 -9.317,0.083 -14.015,0.25 -0.235,2.253 -0.469,4.256 -0.469,6.592 2.348,0.667 5.558,0.25 7.986,0.167 0.939,0.083 2.113,0.417 3.522,0.417 0.627,0 1.489,-0.334 1.958,0.25 -0.078,3.672 -0.078,7.26 -0.547,11.266 -4.072,-0.084 -8.065,-0.167 -11.824,-0.167 -0.391,1.418 -0.312,3.254 -0.626,5.257 3.915,1.502 7.987,0.5 12.292,1.085 C 0.782,-7.343 -0.235,-3.087 0,0 z"
             style="fill:none;stroke:#ffffff;stroke-width:1;stroke-linecap:butt;stroke-linejoin:miter;stroke-miterlimit:10;stroke-opacity:1;stroke-dasharray:none"
             id="path126"
             inkscape:connector-curvature="0" /></g><g
           id="g128"
           transform="translate(424.793,500.4653)"><path
             d="m 0,0 c -2.428,0 -4.541,0.834 -7.125,0.917 -1.487,0.084 -2.976,-0.584 -4.541,-0.333 -2.662,-8.929 -5.794,-18.859 -8.926,-27.37 -0.861,3.755 -2.584,7.26 -3.993,10.764 -0.705,1.752 -1.723,6.175 -2.349,8.011 -0.939,3.088 -1.878,6.008 -2.818,9.012 -1.88,0.083 -4.228,-0.334 -6.499,-0.417 -1.957,-0.084 -3.758,-0.167 -5.402,-0.834 0.313,-2.253 1.253,-4.673 1.879,-6.76 1.018,-3.171 2.036,-8.928 3.053,-11.932 0.392,-1.085 0.548,-2.17 0.783,-3.255 0.235,-0.667 0.548,-1.251 0.705,-1.919 0.391,-1.168 0.627,-2.337 1.018,-3.338 0.235,-0.501 0.235,-0.918 0.392,-1.419 0.548,-1.669 1.252,-3.337 1.879,-4.923 1.643,-4.172 4.071,-7.927 5.558,-12.1 3.915,-0.417 8.221,0.501 11.744,-0.25 0.862,1.502 1.331,3.088 1.801,4.673 0.783,2.337 1.487,4.59 2.193,6.926 0.156,0.418 0.156,0.918 0.235,1.336 1.174,3.42 2.896,6.591 4.071,9.763 0.078,0.417 -0.079,0.5 -0.157,0.834 0.078,0.167 0.627,-0.083 0.548,0.25 1.253,3.004 2.036,6.259 3.132,9.43 0.783,2.086 1.644,3.922 2.114,6.175 C -0.235,-5.09 -0.079,-1.836 0,0 z"
             style="fill:none;stroke:#ffffff;stroke-width:1;stroke-linecap:butt;stroke-linejoin:miter;stroke-miterlimit:10;stroke-opacity:1;stroke-dasharray:none"
             id="path130"
             inkscape:connector-curvature="0" /></g><g
           id="g132"
           transform="translate(456.0312,455.9053)"><path
             d="m 0,0 c 0.156,3.254 0.626,9.93 0.861,13.435 0,0.667 0.314,1.335 0.314,2.086 0.078,2.002 0,4.422 -0.079,6.759 -0.078,3.755 -0.078,7.594 -0.94,11.014 -0.312,1.169 -0.391,2.421 -0.704,3.505 -0.47,1.586 -1.566,2.921 -2.192,4.59 -1.018,0.918 -1.723,2.086 -2.662,3.004 -0.94,0.417 -2.036,1.002 -3.21,1.419 -1.175,0.417 -2.428,0.917 -3.602,1.084 -1.097,0.167 -2.349,0.334 -3.367,0.334 -2.035,-0.084 -3.21,-0.751 -5.089,-1.168 -2.74,-1.502 -5.402,-3.672 -6.498,-6.676 -0.705,-1.836 -0.861,-3.505 -1.175,-5.758 -0.156,-1.085 -0.469,-2.169 -0.548,-3.254 -0.078,-0.584 0,-1.085 0,-1.585 -0.078,-0.835 -0.313,-1.669 -0.391,-2.42 -0.078,-1.252 -0.078,-2.504 -0.078,-3.672 -0.078,-1.335 -0.314,-2.67 -0.236,-3.922 0.078,-2.086 0.392,-4.172 0.705,-6.175 0.314,-2.336 -0.078,-7.26 0.47,-9.513 0.234,-1.085 0.392,-3.421 1.174,-3.671 0.313,-0.167 0.705,0.25 1.175,0.334 0.939,0.167 1.801,-0.084 2.426,-0.251 1.801,0.334 4.073,0.751 5.716,1.335 0.314,3.338 -0.313,9.764 -0.234,12.851 2.583,-0.334 5.323,-0.25 7.829,-0.417 0,-3.672 -0.235,-11.182 0.392,-14.687 C -6.655,-0.334 -3.132,-0.834 0,0 z m -13.153,35.798 c 1.879,-2.253 2.818,-5.006 2.583,-9.012 -1.879,-0.501 -3.993,-0.417 -5.872,-0.668 -1.252,-0.166 -2.271,-0.834 -3.445,-0.751 -0.235,5.174 0.392,10.181 4.463,11.015 1.174,0.167 1.331,-0.417 2.271,-0.584 z"
             style="fill:none;stroke:#ffffff;stroke-width:1;stroke-linecap:butt;stroke-linejoin:miter;stroke-miterlimit:10;stroke-opacity:1;stroke-dasharray:none"
             id="path134"
             inkscape:connector-curvature="0" /></g><g
           id="g136"
           transform="translate(487.5049,501.1328)"><path
             d="m 0,0 c -1.723,0.584 -3.758,0.5 -6.028,0.667 -1.567,0.084 -3.211,0.251 -4.933,0.334 -1.488,0.083 -3.132,0.25 -4.698,0.25 -1.644,-0.083 -3.288,0.167 -4.933,0.167 -2.505,-0.083 -5.089,-1.168 -7.673,-0.334 -0.469,-0.5 -0.234,-1.334 -0.234,-2.002 0.078,-3.004 -0.157,-6.509 -0.078,-9.429 2.191,-0.668 5.402,0.166 7.907,0.083 0.156,-1.335 -0.078,-2.67 0,-4.339 0.156,-1.752 0,-3.505 0.078,-5.174 0.078,-1.585 0.236,-3.171 0.314,-4.756 0.235,-3.004 0.391,-7.009 0.783,-10.18 0.548,-4.006 0.782,-7.678 1.174,-11.266 1.331,-0.167 2.819,0 4.306,0.167 2.193,0.25 4.228,0.25 5.716,0.834 0.391,1.169 0.47,2.003 0.47,3.255 0.156,2.42 0.156,4.923 0.156,7.51 0.078,1.252 0.314,3.171 0.235,4.423 0,6.592 0.157,13.268 -1.096,19.443 3.601,0.333 5.324,-0.501 8.69,0.083 C 0.783,-7.51 0.548,-3.254 0,0 z"
             style="fill:none;stroke:#ffffff;stroke-width:1;stroke-linecap:butt;stroke-linejoin:miter;stroke-miterlimit:10;stroke-opacity:1;stroke-dasharray:none"
             id="path138"
             inkscape:connector-curvature="0" /></g><g
           id="g140"
           transform="translate(513.0283,503.0518)"><path
             d="m 0,0 c -1.331,0.25 -2.819,0.584 -3.993,0.584 -5.716,-0.083 -10.179,-0.667 -15.973,-1.501 -0.626,0.25 -1.174,0.083 -2.035,0 -1.097,-8.596 -0.548,-16.356 -0.939,-24.45 -0.158,-3.005 0.156,-5.841 0.234,-8.512 0,-1.084 -0.156,-2.169 -0.078,-3.171 0.235,-3.171 0.078,-7.093 0.548,-10.847 3.915,-0.334 8.612,0 12.214,0 0.626,0 1.252,-0.167 1.879,-0.167 0.391,0 0.862,0.25 1.252,0.25 3.289,0.083 5.952,-0.25 8.378,0.918 1.096,3.504 0.236,7.093 0.47,11.015 -4.854,1.251 -9.317,0.083 -14.015,0.25 -0.235,2.253 -0.469,4.256 -0.469,6.592 2.348,0.667 5.558,0.25 7.986,0.167 0.939,0.083 2.113,0.417 3.522,0.417 0.627,0 1.489,-0.334 1.958,0.25 -0.078,3.672 -0.078,7.26 -0.547,11.266 -4.072,-0.084 -8.065,-0.167 -11.824,-0.167 -0.391,1.418 -0.312,3.254 -0.626,5.257 3.915,1.502 7.987,0.5 12.292,1.085 C 0.782,-7.343 -0.235,-3.087 0,0 z"
             style="fill:none;stroke:#ffffff;stroke-width:1;stroke-linecap:butt;stroke-linejoin:miter;stroke-miterlimit:10;stroke-opacity:1;stroke-dasharray:none"
             id="path142"
             inkscape:connector-curvature="0" /></g><g
           id="g144"
           transform="translate(528.6855,501.8003)"><path
             d="m 0,0 c -2.896,0.751 -7.595,0.25 -10.335,0.167 -0.392,-1.502 0.078,-2.837 0.078,-4.423 0,-1.168 -0.313,-2.336 -0.313,-3.504 -0.235,-11.266 -0.548,-27.204 1.096,-38.469 2.036,-0.167 4.306,-0.834 6.498,-0.584 0.392,0 0.705,0.25 1.097,0.25 1.018,0.084 2.113,-0.417 3.132,-0.417 0.47,0 1.018,0.084 1.487,0.167 1.566,0.084 2.662,0.167 3.993,0.417 1.018,0.167 1.957,0.417 2.975,0.501 0.157,1.669 -0.156,3.337 -0.234,4.923 -0.078,1.502 -0.157,3.004 -0.314,4.673 -2.662,0.584 -5.011,1.419 -7.829,1.335 -0.47,3.422 -0.47,6.676 -0.47,9.93 0,1.753 0.314,3.588 0.314,5.341 0,1.085 -0.236,3.922 -0.314,5.006 -0.078,1.085 0,2.17 0,3.255 C 0.704,-8.178 0.234,-5.007 0.156,-1.836 0.156,-1.252 0.313,-0.584 0,0 z"
             style="fill:none;stroke:#ffffff;stroke-width:1;stroke-linecap:butt;stroke-linejoin:miter;stroke-miterlimit:10;stroke-opacity:1;stroke-dasharray:none"
             id="path146"
             inkscape:connector-curvature="0" /></g><g
           id="g148"
           transform="translate(578.7939,468.9229)"><path
             d="m 0,0 c 0.549,2.086 0.861,4.172 1.019,6.508 0.078,1.252 0.234,2.671 0.234,3.923 -0.078,3.504 -1.096,6.925 -2.192,9.679 -0.47,1.168 -1.174,2.086 -1.644,3.088 -0.313,0.584 -0.47,1.251 -0.705,1.752 -0.392,0.751 -1.174,1.419 -1.801,2.253 -0.626,0.751 -1.409,1.586 -2.035,2.086 -0.549,0.334 -1.331,0.668 -2.036,1.085 -0.704,0.334 -1.409,0.834 -2.035,1.168 -2.271,1.085 -4.855,1.168 -7.517,1.335 -0.783,0 -1.487,0.334 -2.192,0.417 -0.314,0 -0.705,-0.166 -1.096,-0.083 -0.627,0 -1.175,0.167 -1.723,0.167 -2.348,-0.25 -3.679,-1.669 -5.324,-2.753 -5.95,-3.839 -9.239,-11.85 -9.709,-20.361 -0.234,-3.756 0.079,-7.511 0.783,-10.765 0.862,-3.922 3.288,-6.008 5.716,-8.428 3.758,-2.503 8.143,-5.09 13.31,-5.09 1.488,0 3.445,0.333 4.776,0.584 0.392,0.083 0.94,0.083 1.253,0.167 0.548,0.167 1.487,0.834 1.957,1.168 0.548,0.334 0.94,0.501 1.409,0.751 2.74,1.586 5.168,3.922 6.891,6.592 0.47,0.751 1.096,1.419 1.409,2.087 C -0.86,-1.836 -0.704,-0.751 0,0 z m -17.225,-1.001 c -2.27,-0.334 -3.053,-0.251 -5.324,0.5 -0.782,0.751 -1.957,1.085 -2.818,1.836 -0.548,0.918 -1.018,1.836 -1.566,2.753 -1.409,4.256 -1.096,8.929 1.096,12.017 1.253,1.835 3.367,3.922 5.324,4.673 0.078,0 0.157,0.083 0.235,0.083 2.27,0.334 4.698,-0.918 5.951,-2.086 0.939,-0.918 2.113,-3.254 2.662,-4.756 0.782,-2.504 0.782,-6.843 0.078,-9.096 -0.548,-1.669 -1.097,-3.338 -2.192,-4.423 -0.862,-0.834 -2.428,-1.334 -3.446,-1.501 z"
             style="fill:none;stroke:#ffffff;stroke-width:1;stroke-linecap:butt;stroke-linejoin:miter;stroke-miterlimit:10;stroke-opacity:1;stroke-dasharray:none"
             id="path150"
             inkscape:connector-curvature="0" /></g></g></g><path
       sodipodi:type="star"
       style="fill:#ad7fa8"
       id="path3211"
       sodipodi:sides="13"
       sodipodi:cx="-142.62712"
       sodipodi:cy="302.03391"
       sodipodi:r1="272.31531"
       sodipodi:r2="289.75266"
       sodipodi:arg1="-0.47447808"
       sodipodi:arg2="-0.14251692"
       inkscape:flatsided="true"
       inkscape:rounded="0"
       inkscape:randomized="0"
       d="m 99.605867,177.62005 30.071673,126.82214 -32.310048,126.27043 -87.289919,96.79169 -122.272723,45.13913 -129.24432,-16.85425 -106.60761,-74.98653 -59.54836,-115.94029 1.15268,-130.33354 61.58967,-114.86894 107.9172,-73.089254 129.5222,-14.565695 121.455229,47.294688 z"
       transform="matrix(1.0230882,0,0,-0.66937451,439.54784,543.40974)"
       inkscape:transform-center-x="4.1084104"
       inkscape:transform-center-y="-23.087703" /><path
       inkscape:transform-center-y="-11.350524"
       inkscape:transform-center-x="2.1638404"
       transform="matrix(0.8419474,0,0,-0.51419077,380.4368,496.07943)"
       d="m 99.605867,177.62005 30.071673,126.82214 -32.310048,126.27043 -87.289919,96.79169 -122.272723,45.13913 -129.24432,-16.85425 -106.60761,-74.98653 -59.54836,-115.94029 1.15268,-130.33354 61.58967,-114.86894 107.9172,-73.089254 129.5222,-14.565695 121.455229,47.294688 z"
       inkscape:randomized="0"
       inkscape:rounded="0"
       inkscape:flatsided="true"
       sodipodi:arg2="-0.14251692"
       sodipodi:arg1="-0.47447808"
       sodipodi:r2="289.75266"
       sodipodi:r1="272.31531"
       sodipodi:cy="302.03391"
       sodipodi:cx="-142.62712"
       sodipodi:sides="13"
       id="path3260"
       style="fill:#ffffff"
       sodipodi:type="star" /><g
       id="g26"
       transform="matrix(1.2805862,0,0,1.1974654,10.165653,-237.71)"
       style="fill:#ef2929"><g
         id="g28"
         clip-path="url(#clipPath30-3-1-7)"
         style="fill:#ef2929"><g
           id="g34"
           transform="translate(298.7954,531.2607)"
           style="fill:#ef2929"><path
             d="m 0,0 c -8.377,0.596 -15.734,3.193 -22.752,6.454 6.828,1.596 13.157,4.505 18.146,10.032 3.618,4.178 5.307,9.962 4.592,16.547 -1.489,7.231 -9.355,6.587 -12.798,4.659 -13.531,-7.31 -28.607,-5.546 -43.127,-7.033 -1.076,-0.152 -2.138,-0.301 -3.185,-0.448 -5.836,-0.821 -11.147,-1.569 -14.968,-2.107 -0.292,0.024 -0.583,0.023 -0.872,-0.029 l -2.394,-0.43 c -1.751,-0.247 -2.759,-0.389 -2.759,-0.389 -0.166,-0.038 -0.281,-0.097 -0.358,-0.172 l -30.752,-5.525 c -0.478,-0.004 -0.978,-0.098 -1.49,-0.267 l -0.43,-0.078 c -1.01,-0.046 -2.041,-0.246 -3.053,-0.593 -0.02,-0.007 -0.039,-0.014 -0.058,-0.02 -1.368,-0.478 -2.698,-1.22 -3.875,-2.237 l -76.806,-66.35 -40.912,-18.576 c -2.94,-1.336 -3.539,-5.714 -1.336,-9.779 l 26.157,-48.279 c 2.202,-4.067 6.373,-6.279 9.314,-4.944 l 57.754,26.225 c 0.127,-0.251 0.413,-0.38 0.92,-0.346 0,0 15.012,2.268 33.241,5.021 1.657,0.251 3.341,0.504 5.043,0.763 22.678,4.218 44.393,13.071 68.821,9.009 6.252,-1.126 18.448,1.381 16.669,11.776 -2.581,9.197 -8.336,16.28 -16.104,20.365 -6.63,3.334 -13.482,5.056 -20.42,5.686 -2.362,0.202 -4.734,0.283 -7.159,0.255 -8.607,-0.523 -17.138,0.925 -25.609,1.91 4.02,6.149 7.059,13.888 9.604,19.039 0.322,0.754 0.621,1.503 0.893,2.247 3.129,-0.637 6.286,-1.136 9.444,-1.493 4.208,-3.873 10.973,-6.853 11.97,-8.686 1.415,-0.806 3.448,-2.214 2.54,-1.645 8.258,-5.041 11.106,-10.59 18.551,-15.913 1.646,-1.197 3.333,-2.343 5.078,-3.42 3.488,-2.151 7.201,-4.037 11.313,-5.471 5.688,-1.446 13.045,-0.352 17.08,4.339 5.565,5.575 7.53,15.768 -0.51,19.402 -1.837,0.81 -3.648,1.662 -5.433,2.549 -8.98,3.657 -14.224,10.868 -20.055,18.016 7.73,-2.663 15.861,-3.913 24.44,-1.907 5.951,1.504 11.123,5.363 14.571,11.166 C 12.062,-3.929 4.388,-0.253 0,0"
             style="fill:#ef2929;fill-opacity:1;fill-rule:nonzero;stroke:none"
             id="path36"
             inkscape:connector-curvature="0" /></g><g
           id="g38"
           transform="translate(298.7954,531.2607)"
           style="fill:#ef2929"><path
             d="m 0,0 c -8.377,0.596 -15.734,3.193 -22.752,6.454 6.828,1.596 13.157,4.505 18.146,10.032 3.618,4.178 5.307,9.962 4.592,16.547 -1.489,7.231 -9.355,6.587 -12.798,4.659 -13.531,-7.31 -28.607,-5.546 -43.127,-7.033 -1.076,-0.152 -2.138,-0.301 -3.185,-0.448 -5.836,-0.821 -11.147,-1.569 -14.968,-2.107 -0.292,0.024 -0.583,0.023 -0.872,-0.029 l -2.394,-0.43 c -1.751,-0.247 -2.759,-0.389 -2.759,-0.389 -0.166,-0.038 -0.281,-0.097 -0.358,-0.172 l -30.752,-5.525 c -0.478,-0.004 -0.978,-0.098 -1.49,-0.267 l -0.43,-0.078 c -1.01,-0.046 -2.041,-0.246 -3.053,-0.593 -0.02,-0.007 -0.039,-0.014 -0.058,-0.02 -1.368,-0.478 -2.698,-1.22 -3.875,-2.237 l -76.806,-66.35 -40.912,-18.576 c -2.94,-1.336 -3.539,-5.714 -1.336,-9.779 l 26.157,-48.279 c 2.202,-4.067 6.373,-6.279 9.314,-4.944 l 57.754,26.225 c 0.127,-0.251 0.413,-0.38 0.92,-0.346 0,0 15.012,2.268 33.241,5.021 1.657,0.251 3.341,0.504 5.043,0.763 22.678,4.218 44.393,13.071 68.821,9.009 6.252,-1.126 18.448,1.381 16.669,11.776 -2.581,9.197 -8.336,16.28 -16.104,20.365 -6.63,3.334 -13.482,5.056 -20.42,5.686 -2.362,0.202 -4.734,0.283 -7.159,0.255 -8.607,-0.523 -17.138,0.925 -25.609,1.91 4.02,6.149 7.059,13.888 9.604,19.039 0.322,0.754 0.621,1.503 0.893,2.247 3.129,-0.637 6.286,-1.136 9.444,-1.493 4.208,-3.873 10.973,-6.853 11.97,-8.686 1.415,-0.806 3.448,-2.214 2.54,-1.645 8.258,-5.041 11.106,-10.59 18.551,-15.913 1.646,-1.197 3.333,-2.343 5.078,-3.42 3.488,-2.151 7.201,-4.037 11.313,-5.471 5.688,-1.446 13.045,-0.352 17.08,4.339 5.565,5.575 7.53,15.768 -0.51,19.402 -1.837,0.81 -3.648,1.662 -5.433,2.549 -8.98,3.657 -14.224,10.868 -20.055,18.016 7.73,-2.663 15.861,-3.913 24.44,-1.907 5.951,1.504 11.123,5.363 14.571,11.166 C 12.062,-3.929 4.388,-0.253 0,0 z"
             style="fill:#ef2929;stroke:#ffffff;stroke-width:1;stroke-linecap:butt;stroke-linejoin:miter;stroke-miterlimit:10;stroke-opacity:1;stroke-dasharray:none"
             id="path40"
             inkscape:connector-curvature="0" /></g></g></g></g></svg>